<?xml version="1.0" encoding="utf-8"?>
<!-- Generator: Adobe Illustrator 27.5.0, SVG Export Plug-In . SVG Version: 6.00 Build 0)  -->
<svg version="1.1" id="Layer_1" xmlns="http://www.w3.org/2000/svg" xmlns:xlink="http://www.w3.org/1999/xlink" x="0px" y="0px"
	 viewBox="0 0 4000 4000" style="enable-background:new 0 0 4000 4000;" xml:space="preserve">
<g>
	<g>
		<g>
			<rect style="fill:#E791FE;" width="4000" height="4000"/>
		</g>
	</g>
	<g>
		<g>
			<g>
				<path style="fill:#FFFFFF;" d="M1940.903,1757.589l-71.922,131.215l-30.895,56.399c0,0-10.282,0.699-28.149,0.5
					c-86.746-1.048-352.72-24.157-490.224-257.89c-113.797-193.454-44.172-284.841,65.482-282.494
					c26.503,0.598,51.558,12.478,79.408,32.392c68.579,48.912,154.075,146.188,319.38,241.867
					C1829.751,1706.082,1881.608,1732.434,1940.903,1757.589z"/>
			</g>
		</g>
		<g>
			<g>
				<path style="fill:#371A45;" d="M1475.982,1863.395c-5.078,0-9.897-2.993-11.987-7.969c-2.773-6.611,0.332-14.214,6.938-16.997
					l0,0c6.162-2.612,151.104-66.128,165.4-257.002c0.537-7.158,6.831-12.475,13.926-11.982c7.153,0.532,12.52,6.768,11.982,13.926
					c-15.518,207.202-174.482,276.177-181.24,279.014C1479.361,1863.072,1477.657,1863.395,1475.982,1863.395z"/>
			</g>
		</g>
		<g style="opacity:0.25;">
			<g>
				<path style="fill:#371A45;" d="M1940.903,1757.589l-71.922,131.215l-30.895,56.399c0,0-10.282,0.699-28.149,0.5
					c-86.746-1.048-352.72-24.157-490.224-257.89c-52.458-89.14-65.933-156.619-54.504-203.237
					c6.988,37.084,24.307,81.255,54.504,132.563c137.503,233.733,403.478,256.841,490.224,257.889
					c17.867,0.2,28.149-0.498,28.149-0.498l30.895-56.4l40.678-74.217C1919.839,1748.506,1930.271,1753.047,1940.903,1757.589z"/>
			</g>
		</g>
		<g>
			<g>
				<path style="fill:#371A45;" d="M1816.119,1963.097c-33.833,0-101.182-3.198-179.517-24.15
					c-146.924-39.292-261.665-123.105-331.816-242.368c-78.306-133.125-66.738-208.843-43.242-248.921
					c23.267-39.683,67.48-60.903,124.043-59.648c53.643,1.147,99.8,41.348,163.682,96.987
					c82.759,72.08,196.099,170.796,398.408,256.665c8.809,3.74,12.915,13.911,9.18,22.715c-3.74,8.804-13.906,12.92-22.715,9.18
					c-207.378-88.022-323.12-188.828-407.627-262.432c-60.566-52.749-100.576-87.598-141.67-88.477
					c-43.662-0.967-76.787,14.175-93.413,42.534c-26.577,45.332-11.226,121.274,43.218,213.828
					c66.196,112.544,170.435,188.638,309.819,226.177c104.99,28.276,191.558,22.793,192.422,22.739
					c9.468-0.752,17.803,6.553,18.462,16.094c0.654,9.541-6.538,17.807-16.074,18.467
					C1838.199,1962.564,1829.962,1963.097,1816.119,1963.097z"/>
			</g>
		</g>
		<g>
			<g>
				<path style="fill:#FFFFFF;" d="M2547.967,2395.2c-67.23,77.012-202.339,96.477-236.976,148.534
					c-30.395,45.668-19.515,103.864-16.571,164.855c2.496,52.207-6.438,120.535-50.309,179.729
					c-66.432,89.54-192.506,98.874-260.834,41.925c-78.011-65.033,18.915-228.591,32.99-248.755c0,0-21.312-26.153-41.126-49.711
					c-14.424-17.169-24.556-41.576-29.846-69.376c-158.117-8.734-284.292,118.438-367.992,141.097
					c-92.934,25.155-193.804-41.476-261.432-171.543c-55.601-106.959-15.123-201.541,67.23-211.473
					c62.937-7.537,171.643,78.311,171.643,78.311s49.411-215.515,237.026-190.26c0,0,20.464-106.31,18.168-262.83
					c-0.35-24.457-1.248-50.21-2.895-76.913c-3.593-58.944-10.68-122.78-23.058-189.211c-1.399-7.187-2.795-14.374-4.243-21.612
					l591.791-40.278c10.432,11.779,20.414,23.658,30.047,35.636c9.134,11.38,17.918,22.81,26.353,34.289
					c41.776,56.849,75.416,115.494,101.719,173.689C2632.117,2088.049,2623.333,2308.804,2547.967,2395.2z"/>
			</g>
		</g>
		<g>
			<g>
				<path style="fill:#FFFFFF;" d="M2047.761,2587.555c-206.332-91.187-369.39,88.592-470.459,115.943
					c-92.934,25.155-193.804-41.476-261.432-171.543c-20.764-39.929-28.1-78.111-24.907-110.852
					c5.341-54.902,40.528-94.382,92.136-100.621c62.937-7.537,171.643,78.311,171.643,78.311s49.411-215.515,237.026-190.26
					c0,0,48.463-251.75-12.028-550.566l192.007,665.91L2047.761,2587.555z"/>
			</g>
		</g>
		<g style="opacity:0.25;">
			<g>
				<path style="fill:#371A45;" d="M2047.761,2587.555c-206.332-91.187-369.39,88.592-470.459,115.943
					c-92.934,25.155-193.804-41.476-261.432-171.543c-20.764-39.929-28.1-78.111-24.907-110.852
					c90.189,153.476,390.153,24.656,455.187-29.098c60.541-50.061,229.904-100.212,347.794-96.906L2047.761,2587.555z"/>
			</g>
		</g>
		<g>
			<g>
				<path style="fill:#371A45;" d="M1790.43,2606.344c-0.625,0-1.255-0.044-1.895-0.137c-7.1-1.04-12.012-7.637-10.977-14.736
					c33.325-228.125-147.349-321.162-149.18-322.075c-6.416-3.208-9.023-11.01-5.82-17.431c3.208-6.416,11.011-9.014,17.432-5.821
					c2.056,1.03,50.869,25.781,95.576,81.235c41.26,51.182,86.499,139.199,67.705,267.852
					C1802.33,2601.69,1796.778,2606.344,1790.43,2606.344z"/>
			</g>
		</g>
		<g>
			<g>
				<path style="fill:#FFFFFF;" d="M1620.568,2365.5"/>
			</g>
		</g>
		<g>
			<g>
				<path style="fill:#371A45;" d="M1537.374,2726.173c-87.515,0-175.225-67.69-236.87-186.235
					c-32.49-62.485-36.587-125.859-11.235-173.872c18.813-35.625,51.392-57.915,91.738-62.764
					c53.086-6.416,128.203,41.196,164.434,66.958c19.98-56.69,83.271-190.483,231.885-180.581
					c9.053-59.067,36.074-278.227-14.58-528.262c-1.899-9.375,4.16-18.516,13.54-20.415c9.321-1.904,18.511,4.16,20.415,13.54
					c60.513,298.696,12.549,554.726,12.061,557.275l-3.101,16.074l-16.221-2.183c-169.478-22.813-215.903,168.804-217.793,176.973
					l-6.162,26.606l-21.45-16.895c-28.706-22.642-113.315-80.063-158.887-74.697c-28.73,3.457-51.895,19.277-65.239,44.546
					c-19.966,37.808-15.83,89.463,11.338,141.709c64.175,123.408,156.729,185.791,241.509,162.842
					c26.099-7.071,58.047-25.982,95.039-47.881c97.236-57.554,230.386-136.367,386.992-67.177c8.75,3.867,12.71,14.096,8.843,22.846
					s-14.102,12.71-22.847,8.843c-140.293-61.997-259.531,8.584-355.337,65.303c-39.17,23.184-72.993,43.208-103.638,51.504
					C1567.091,2724.22,1552.232,2726.173,1537.374,2726.173z"/>
			</g>
		</g>
		<g>
			<g>
				<path style="fill:none;stroke:#371A45;stroke-width:25.9844;stroke-linecap:round;stroke-miterlimit:10;" d="M1620.568,2365.5"
					/>
			</g>
		</g>
		<g>
			<g>
				<g>
					<path style="fill:#FF2C27;" d="M1200.606,2591.555l-199.02,43.399c-161.027,35.114-263.1,194.117-227.986,355.144l0,0
						c35.114,161.027,194.117,263.1,355.144,227.986l199.021-43.399L1200.606,2591.555z"/>
				</g>
			</g>
			<g style="opacity:0.6;">
				<g>
					<path style="fill:#FFFFFF;" d="M1327.748,3162.965l-5.091,1.098l-109.104-500.356l-198.995,43.373
						c-140.748,30.695-236.477,155.971-234.88,294.573c-2.346-7.636-4.342-15.373-6.089-23.308
						c-35.087-161.012,66.981-320.028,227.992-355.115l199.045-43.422L1327.748,3162.965z"/>
				</g>
			</g>
			<g>
				<g style="opacity:0.3;">
					<g>
						<path style="fill:#371A45;" d="M786.377,2938.807c0.674,3.761,1.404,7.524,2.227,11.29
							c17.556,80.51,66.077,146.3,130.347,187.559c64.268,41.257,144.287,57.983,224.797,40.427l176.362-38.458l-27.19-124.691
							l-199.009,43.396c-120.798,26.342-240.481-24.515-307.542-119.534C786.372,2938.8,786.375,2938.804,786.377,2938.807z"/>
					</g>
				</g>
			</g>
			<g>
				<g>
					<path style="fill:#371A45;" d="M1064.537,3242.364c-59.795,0-118.418-17.065-169.941-50.142
						c-70.972-45.562-119.951-116.035-137.92-198.433c-37.095-170.103,71.118-338.667,241.221-375.762l199.019-43.398
						c4.482-0.986,9.18-0.132,13.052,2.344c3.862,2.485,6.587,6.401,7.563,10.889l127.158,583.13
						c2.041,9.351-3.887,18.579-13.232,20.615l-199.019,43.398C1109.854,3239.933,1087.105,3242.364,1064.537,3242.364z
						 M1187.374,2612.169l-182.095,39.707c-151.435,33.027-247.773,183.095-214.756,334.531
						c15.996,73.359,59.604,136.099,122.788,176.66c63.184,40.566,138.389,54.087,211.743,38.091l182.095-39.707L1187.374,2612.169z
						"/>
				</g>
			</g>
			<g>
				<g>
					
						<rect x="1295.993" y="2388.83" transform="matrix(0.977 -0.2131 0.2131 0.977 -522.9569 522.0748)" style="fill:#4089FF;" width="1729.639" height="597.183"/>
				</g>
			</g>
			<g style="opacity:0.5;">
				<g>
					<polygon style="fill:#FFFFFF;" points="2954.327,2269.89 3069.369,2795.127 3081.892,2792.407 2954.327,2210 1260,2577.837 
						1272.52,2635.01 					"/>
				</g>
			</g>
			<g style="opacity:0.3;">
				<g>
					<polygon style="fill:#371A45;" points="3030.664,2617.302 1340.718,2985.814 1373.584,3136.536 1370.439,3122.109 
						3054.392,2754.902 3024.673,2618.608 3030.664,2617.302 3069.392,2794.902 1379.446,3163.416 1379.446,3163.416 
						3069.392,2794.902 					"/>
				</g>
			</g>
			<g>
				<g>
					<path style="fill:#371A45;" d="M1379.464,3180.733c-3.291,0-6.543-0.942-9.36-2.749c-3.862-2.481-6.587-6.397-7.563-10.884
						l-127.231-583.472c-2.041-9.351,3.887-18.579,13.232-20.615l1689.927-368.506c3.003-0.664,6.133-0.498,9.058,0.454l0.659,0.215
						c6.201,2.021,10.742,7.354,11.748,13.794c1.006,6.445-1.689,12.91-6.978,16.724c-29.775,21.479-43.955,58.555-36.128,94.448
						c3.818,17.495,12.534,33.359,25.21,45.874c7.466,7.373,11.582,17.539,11.309,27.896c-0.273,10.381-4.731,19.922-12.544,26.865
						c-29.214,25.942-42.192,65.762-33.877,103.916c8.32,38.159,36.709,68.975,74.082,80.425
						c9.995,3.061,18.018,9.883,22.588,19.214c4.561,9.307,5.044,20.264,1.328,30.068c-6.313,16.66-7.637,34.712-3.823,52.207
						c7.822,35.874,36.147,63.701,72.158,70.898c6.597,1.318,11.831,6.333,13.433,12.861c1.602,6.533-0.723,13.398-5.957,17.617
						l-0.078,0.063c-2.158,1.768-4.897,3.198-7.573,3.779l-1689.927,368.506C1381.934,3180.602,1380.694,3180.733,1379.464,3180.733
						z M1272.847,2593.17l119.849,549.624l1622.925-353.896c-24.17-17.954-41.699-44.302-48.369-74.907
						c-5.249-24.067-3.423-48.921,5.278-71.875c0.43-1.143,0.215-2.012-0.044-2.539c-0.327-0.659-0.854-1.099-1.626-1.333
						c-49.331-15.108-86.797-55.791-97.783-106.167c-10.981-50.376,6.152-102.949,44.717-137.207
						c0.601-0.532,0.898-1.143,0.918-1.875c0.015-0.586-0.146-1.465-1.016-2.324c-17.461-17.241-29.468-39.077-34.717-63.145
						c-6.68-30.625-1.709-61.88,12.808-88.252L1272.847,2593.17z"/>
				</g>
			</g>
			<g>
				<g>
					<path style="fill:#FFD39F;" d="M3451.973,2452.483l-82.445,73.812l-168.92,151.161l-130.744,117.038
						c-41.446-8.279-76.107-40.26-85.688-84.197c-4.69-21.506-2.71-42.881,4.555-62.039c2.855-7.519,1.111-15.516-3.858-20.971
						c-2.285-2.516-5.325-4.51-8.938-5.612c-41.985-12.861-75.916-47.351-85.933-93.288c-10.006-45.887,6.474-91.421,39.304-120.546
						c8.812-7.847,8.963-21.213,0.567-29.497c-14.581-14.393-25.281-33.004-29.97-54.509c-9.581-43.937,8.619-87.445,42.915-112.19
						l167.541,51.943l216.479,67.171l105.739,32.777c14.95,4.606,25.828,14.904,31.701,27.313
						C3473.648,2410.618,3470.559,2435.813,3451.973,2452.483z"/>
				</g>
			</g>
			<g style="opacity:0.7;">
				<g>
					<path style="fill:#FFFFFF;" d="M3460.187,2443.204c-0.05-0.2-0.15-0.4-0.25-0.599c-5.839-12.378-16.719-22.709-31.693-27.301
						l-105.712-32.791l-216.512-67.13l-167.551-51.957c-18.617,13.426-32.492,32.392-39.729,53.953
						c-6.589-41.675,11.48-82.203,44.072-105.711l167.551,51.908l216.462,67.18l105.761,32.791
						c14.923,4.592,25.805,14.874,31.694,27.302C3472.065,2407.218,3471.267,2427.333,3460.187,2443.204z"/>
				</g>
			</g>
			<g>
				<g style="opacity:0.3;">
					<g>
						<path style="fill:#371A45;" d="M3000.093,2747.827c11.953,8.047,25.437,13.802,39.771,16.666l130.745-117.037L3350,2500
							l71.973-77.517c4.89-4.385,8.677-9.369,11.477-14.679l1.252-0.688l-306.091,168.344
							c-40.913,22.51-84.829,38.982-130.471,48.936l-13.267,2.893c4.971,5.454,6.714,13.452,3.857,20.97
							c-7.263,19.156-9.243,40.532-4.553,62.039c3.752,17.217,11.399,32.56,21.755,45.398
							C3003.887,2753.159,3001.914,2750.555,3000.093,2747.827z"/>
					</g>
				</g>
			</g>
			<g>
				<g>
					<path style="fill:#371A45;" d="M3451.973,2452.483l-82.445,73.812c-22.762-20.987-41.1-53.308-49.469-91.687
						c-8.358-38.328-5.131-75.302,6.779-103.849l105.739,32.777C3471.415,2375.551,3482.272,2425.34,3451.973,2452.483z"/>
				</g>
			</g>
			<g>
				<g>
					<path style="fill:#371A45;" d="M3069.864,2811.817c-1.128,0-2.266-0.112-3.394-0.337c-49.517-9.893-88.462-48.164-99.219-97.49
						c-5.249-24.067-3.423-48.921,5.278-71.875c0.43-1.143,0.215-2.012-0.044-2.539c-0.327-0.659-0.854-1.099-1.626-1.333
						c-49.331-15.108-86.797-55.791-97.783-106.167c-10.981-50.376,6.152-102.949,44.717-137.207
						c0.601-0.532,0.898-1.143,0.918-1.875c0.015-0.586-0.146-1.465-1.016-2.324c-17.461-17.241-29.468-39.077-34.717-63.145
						c-10.767-49.375,8.745-100.371,49.702-129.927c4.414-3.184,10.063-4.101,15.269-2.5l489.761,151.895
						c24.258,7.505,41.982,26.802,47.407,51.616c5.43,24.839-2.637,49.8-21.587,66.772c0,0.005-0.005,0.005-0.005,0.01
						l-382.109,342.007C3078.214,2810.27,3074.088,2811.817,3069.864,2811.817z M2946.397,2230.895
						c-25.254,21.948-36.797,56.104-29.57,89.248c3.818,17.495,12.534,33.359,25.21,45.874c7.466,7.373,11.587,17.539,11.309,27.896
						c-0.273,10.381-4.731,19.922-12.544,26.865c-29.214,25.942-42.192,65.762-33.877,103.916
						c8.32,38.159,36.709,68.975,74.082,80.425c9.995,3.061,18.018,9.883,22.588,19.214c4.561,9.307,5.044,20.264,1.328,30.068
						c-6.313,16.66-7.637,34.712-3.823,52.207c7.222,33.125,31.924,59.39,64.019,68.887l375.303-335.923l-0.005,0.01
						c9.526-8.54,13.584-21.089,10.854-33.574c-2.72-12.461-11.626-22.153-23.813-25.923L2946.397,2230.895z M3451.973,2452.481
						h0.049H3451.973z"/>
				</g>
			</g>
			<g>
				<g>
					<path style="fill:#FFC41D;" d="M1339.655,3219.449c-63.782,13.908-125.132-16.892-138.207-69.415
						c-16.554-66.499-38.776-158.12-56.852-241.015c-18.076-82.895-36.016-175.449-48.65-242.803
						c-9.979-53.198,32.979-106.744,96.761-120.652h0c66.008-14.394,128.885,19.066,139.234,74.116
						c12.579,66.915,30.105,157.102,47.761,238.072c17.656,80.97,39.269,170.266,55.69,236.343
						C1448.902,3148.455,1405.662,3205.055,1339.655,3219.449L1339.655,3219.449z"/>
				</g>
			</g>
			<g style="opacity:0.6;">
				<g>
					<path style="fill:#FFFFFF;" d="M1337.182,2647.339c-20.514-28.349-57.449-45.718-98.674-45.718
						c-10.532,0-21.362,1.098-32.242,3.494c-56.699,12.378-97.726,54.552-102.717,101.069c-2.695-14.075-5.241-27.451-7.587-39.979
						c-9.982-53.204,32.942-106.709,96.726-120.634c10.382-2.246,20.714-3.344,30.746-3.344c53.754,0,99.822,31.094,108.506,77.461
						C1333.588,2628.522,1335.335,2637.757,1337.182,2647.339z"/>
				</g>
			</g>
			<g>
				<g style="opacity:0.3;">
					<g>
						<path style="fill:#371A45;" d="M1140.615,2884.855c0.273,1.157,0.547,2.31,0.823,3.463
							C1141.162,2887.164,1140.889,2886.011,1140.615,2884.855z"/>
					</g>
				</g>
				<g style="opacity:0.3;">
					<g>
						<path style="fill:#371A45;" d="M1137.041,2869.749c0.002,0.012,0.005,0.024,0.007,0.038
							C1137.046,2869.773,1137.043,2869.761,1137.041,2869.749z"/>
					</g>
				</g>
				<g style="opacity:0.3;">
					<g>
						<path style="fill:#371A45;" d="M1132.734,2851.392c0.249,1.058,0.496,2.114,0.742,3.173
							C1133.23,2853.507,1132.983,2852.45,1132.734,2851.392z"/>
					</g>
				</g>
				<g style="opacity:0.3;">
					<g>
						<path style="fill:#371A45;" d="M1148.489,2917.788c0.244,1.008,0.486,2.013,0.728,3.019
							C1148.975,2919.802,1148.733,2918.796,1148.489,2917.788z"/>
					</g>
				</g>
				<g style="opacity:0.3;">
					<g>
						<path style="fill:#371A45;" d="M1424.934,3051.694c-6.074-24.841-12.524-51.578-18.989-79.031v0.002
							C1412.41,3000.117,1418.86,3026.854,1424.934,3051.694z"/>
					</g>
				</g>
				<g style="opacity:0.3;">
					<g>
						<path style="fill:#371A45;" d="M1201.462,3150.02c-0.361-1.444-0.732-2.939-1.099-4.408
							C1200.728,3147.072,1201.104,3148.584,1201.462,3150.02c4.033,16.254,12.715,30.411,24.644,41.824
							C1214.177,3180.431,1205.496,3166.273,1201.462,3150.02z"/>
					</g>
				</g>
				<g style="opacity:0.3;">
					<g>
						<path style="fill:#371A45;" d="M1156.304,2950.02c0.112,0.464,0.225,0.924,0.337,1.387
							C1156.528,2950.944,1156.416,2950.483,1156.304,2950.02z"/>
					</g>
				</g>
				<g style="opacity:0.3;">
					<g>
						<path style="fill:#371A45;" d="M1191.926,3111.505c13.835,51.603,74.568,81.715,137.734,67.941
							c65.979-14.387,109.27-70.978,95.73-125.341c-5.984-24.093-12.671-51.31-19.585-80.051c0.007-0.115,0.022-0.229,0.034-0.344
							c-2.847,45.515-42.332,87.745-97.983,99.88c-63.784,13.91-125.161-16.895-138.201-69.426
							c-3.003-12.048-6.194-24.929-9.507-38.427c-0.146-0.533-0.359-1.035-0.493-1.573c-7.742-31.053-16.704-67.606-25.913-106.171
							c-1.536-7.319-3.064-14.652-4.587-21.99c0-0.004-0.002-0.007-0.002-0.012c5.105,24.583,10.269,49.202,15.459,72.999
							c14.866,68.177,32.505,142.251,47.532,203.394C1192.07,3112.089,1192,3111.802,1191.926,3111.505z"/>
					</g>
				</g>
				<g style="opacity:0.3;">
					<g>
						<path style="fill:#371A45;" d="M1285.5,3220.653c17.095,3.007,35.505,2.86,54.16-1.207
							c14.434-3.147,27.781-8.314,39.685-15.035c-11.904,6.721-25.251,11.888-39.685,15.035
							C1321.006,3223.513,1302.595,3223.66,1285.5,3220.653z"/>
					</g>
				</g>
				<g style="opacity:0.3;">
					<g>
						<path style="fill:#371A45;" d="M1264.36,3215.045c-4.414-1.597-8.733-3.341-12.83-5.398
							C1255.627,3211.704,1259.946,3213.448,1264.36,3215.045z"/>
					</g>
				</g>
				<g style="opacity:0.3;">
					<g>
						<path style="fill:#371A45;" d="M1389.187,3198.28c-3.157,2.163-6.44,4.21-9.841,6.13
							C1382.747,3202.49,1386.03,3200.443,1389.187,3198.28z"/>
					</g>
				</g>
				<g style="opacity:0.3;">
					<g>
						<path style="fill:#371A45;" d="M1195.889,3127.576c-0.439-1.779-0.879-3.547-1.323-5.35
							C1195.01,3124.03,1195.449,3125.797,1195.889,3127.576z"/>
					</g>
				</g>
				<g style="opacity:0.3;">
					<g>
						<path style="fill:#371A45;" d="M1398.271,3191.453c-2.896,2.385-5.928,4.664-9.084,6.827
							C1392.344,3196.117,1395.376,3193.838,1398.271,3191.453z"/>
					</g>
				</g>
				<g style="opacity:0.3;">
					<g>
						<path style="fill:#371A45;" d="M1198.823,3139.42c-0.42-1.696-0.847-3.417-1.274-5.14
							C1197.976,3136.005,1198.401,3137.722,1198.823,3139.42z"/>
					</g>
				</g>
				<g style="opacity:0.3;">
					<g>
						<path style="fill:#371A45;" d="M1226.445,3192.2c3.486,3.302,7.332,6.279,11.335,9.097
							C1233.779,3198.479,1229.932,3195.502,1226.445,3192.2z"/>
					</g>
				</g>
			</g>
			<g style="opacity:0.25;">
				<g>
					<path style="fill:#371A45;" d="M1331.451,2617.223c0.181,0.829,0.302,1.62,0.483,2.449
						c8.876,47.257,20.211,106.035,32.352,164.994c-5.689-24.455-11.196-49-16.386-72.797
						c-8.199-37.598-16.362-77.145-23.994-115.427C1327.307,2602.904,1329.845,2609.86,1331.451,2617.223z"/>
				</g>
			</g>
			<g style="opacity:0.25;">
				<g>
					<path style="fill:#371A45;" d="M1403.573,2948.201c2.031,8.14,2.799,16.349,2.372,24.463
						c-8.999-37.985-18.041-77.34-26.24-114.938c-5.2-23.845-10.412-48.455-15.42-73.059
						C1377.804,2843.377,1391.979,2901.586,1403.573,2948.201z"/>
				</g>
			</g>
			<g>
				<g>
					<path style="fill:#371A45;" d="M1308.492,3237.853c-58.584,0.005-108.882-33.101-121.602-84.194
						c-15.83-63.594-38.56-157.1-56.948-241.44c-18.413-84.444-36.67-178.882-48.735-243.237
						c-11.567-61.656,36.006-122.305,108.301-138.072c39.688-8.657,80.146-1.904,110.991,18.535
						c24.678,16.348,41.079,40.308,46.182,67.466c11.812,62.842,29.673,155.083,47.676,237.642
						c17.993,82.51,40.161,173.838,55.591,235.923c6.665,26.816,1.729,55.43-13.896,80.571
						c-19.536,31.416-53.506,54.404-93.198,63.057h-0.005C1331.236,3236.637,1319.708,3237.853,1308.492,3237.853z
						 M1339.654,3219.449h0.049H1339.654z M1223.521,2557.208c-9.097,0-18.369,0.991-27.617,3.008
						c-55.4,12.085-93.628,58.394-85.215,103.237c12.036,64.155,30.225,158.286,48.56,242.368
						c18.315,83.989,40.972,177.193,56.753,240.591c11.025,44.268,65.049,70.454,120.459,58.384l0,0
						c31.816-6.943,58.833-25.015,74.111-49.594c11.475-18.452,15.024-38.335,10.264-57.49
						c-15.479-62.275-37.72-153.906-55.786-236.768c-18.081-82.905-36.001-175.454-47.852-238.491
						c-3.647-19.399-15.151-35.996-33.267-48.003C1266.822,2563.116,1245.704,2557.208,1223.521,2557.208z"/>
				</g>
			</g>
		</g>
		<g>
			<g>
				<path style="fill:#FFFFFF;" d="M2694.479,1635.704c79.685,59.721,152.701,344.083,134.245,513.597
					c-18.456,169.514-318.094,182.207-489.454,176.709c-171.36-5.498-170.765-392.951-168.519-496.741
					C2174.26,1667.198,2576.404,1547.211,2694.479,1635.704z"/>
			</g>
		</g>
		<g style="opacity:0.25;">
			<g>
				<path style="fill:#371A45;" d="M2339.267,2326.011c171.359,5.499,470.984-7.215,489.474-176.721
					c2.398-22.199,3.263-46.351,2.708-71.722c-47.322,37.206-113.261,4.093-121.212-41.395
					c-49.09-280.829-153.67-388.604-204.259-425.489c-154.16,21.607-332.912,110.764-335.207,218.597
					C2168.493,1933.057,2167.908,2320.513,2339.267,2326.011z"/>
			</g>
		</g>
		<g>
			<g>
				<path style="fill:#371A45;" d="M2399.063,2344.317c-20.356,0-40.522-0.356-60.347-0.991
					c-170.781-5.479-189.39-324.658-185.283-514.434c1.411-65.298,57.476-128.169,157.866-177.036
					c126.421-61.543,312.832-90.517,393.569-30.015l0,0c91.133,68.301,158.906,365.547,141.079,529.336
					C2828.931,2307.452,2605.733,2344.317,2399.063,2344.317z M2572.882,1622.828c-73.73,0-165.923,20.996-246.416,60.181
					c-86.851,42.275-137.295,95.723-138.394,146.636c-2.407,111.162,1.426,474.228,151.758,479.053
					c169.043,5.425,455.02-8.316,471.675-161.27c17.788-163.413-53.662-442.588-127.417-497.861l0,0
					C2659.976,1631.495,2620.23,1622.828,2572.882,1622.828z"/>
			</g>
		</g>
		<g>
			<g>
				<path style="fill:#FFFFFF;" d="M2677.652,1920.118l76.05-30.317c17.189-6.852,36.533,2.878,41.177,20.791
					c15.977,61.629,40.581,189.368-21.434,215.517c-75.155,31.691-101.796-55.005-115.005-174.116
					C2656.919,1938.271,2664.827,1925.231,2677.652,1920.118z"/>
			</g>
		</g>
		<g style="opacity:0.25;">
			<g>
				<path style="fill:#371A45;" d="M2658.596,1951.802c12.925,119.139,39.377,205.922,114.598,174.376
					c30.9-12.91,40.387-51.103,40.144-93.771c-6.267,12.213-15.252,21.669-27.831,26.922
					c-67.347,28.206-95.631-38.394-110.027-138.221C2664.017,1926.702,2657.164,1938.969,2658.596,1951.802z"/>
			</g>
		</g>
		<g>
			<g>
				<path style="fill:#371A45;" d="M2744.205,2150.055c-12.041,0.005-23.252-3.037-33.545-9.106
					c-36.675-21.631-57.402-77.637-69.307-187.266c-2.319-21.382,10.068-41.865,30.132-49.81l76.118-30.142
					c12.842-5.088,27.271-4.414,39.575,1.86c12.275,6.255,21.284,17.485,24.707,30.815c23.525,91.582,37.065,206.821-32.007,235.757
					C2767.32,2147.428,2755.401,2150.055,2744.205,2150.055z M2765.318,1904.977c-1.509,0-3.184,0.259-4.961,0.967l-76.118,30.146
					c-5.615,2.222-9.087,7.92-8.442,13.853c3.735,34.409,15.112,139.131,52.461,161.162c10.093,5.947,22.598,5.659,38.232-0.894
					c41.255-17.285,33.164-112.158,11.841-195.181c-1.304-5.068-4.868-7.544-6.875-8.569
					C2770.157,1905.802,2767.999,1904.977,2765.318,1904.977z M2677.862,1919.981h0.049H2677.862z"/>
			</g>
		</g>
		<g>
			<g>
				<path style="fill:#371A45;" d="M2718.579,1669.166c-18.567,5.592-37.278,11.508-55.815,17.576
					c-18.552,6.095-37.026,12.402-55.273,19.174l-0.034,0.013c-4.497,1.669-9.495-0.624-11.162-5.121
					c-1.519-4.089,0.244-8.595,3.958-10.631c17.375-9.546,34.946-18.607,52.61-27.458c17.693-8.842,35.371-17.456,53.372-25.923
					c8.682-4.084,19.028-0.358,23.113,8.324s0.356,19.031-8.325,23.115c-0.752,0.354-1.516,0.648-2.29,0.887L2718.579,1669.166z"/>
			</g>
		</g>
		<g>
			<g>
				<path style="fill:none;stroke:#371A45;stroke-width:25.9844;stroke-linecap:round;stroke-miterlimit:10;" d="M1891.132,2559.841
					"/>
			</g>
		</g>
		<g>
			<g>
				<path style="fill:#FFFFFF;" d="M1803.763,1794.827l-24.031-136.868C1791.392,1704.51,1799.089,1750.448,1803.763,1794.827z"/>
			</g>
		</g>
		<g>
			<g>
				<path style="fill:#FFFFFF;" d="M2171.029,2728.667"/>
			</g>
		</g>
		<g>
			<g>
				<path style="fill:#32B1D1;" d="M2202.294,1798.415"/>
			</g>
		</g>
		<g>
			<g>
				<path style="fill:#FFFFFF;" d="M1955.678,2026.907c-77.081-23.418,188.458,244.154,115.353,277.582
					c-25.324,11.58-49.798,26.827-70.04,46.899c-73.982,73.375-76.057,220.697-25.825,280.409
					c19.807,23.545,41.109,49.687,41.109,49.687c-14.072,20.166-111.012,183.744-33.005,248.772
					c68.313,56.948,194.395,47.602,260.82-41.961c43.903-59.196,52.814-127.489,50.317-179.686
					c-2.919-61.03-13.835-119.219,16.578-164.898c34.646-52.037,169.738-71.482,236.967-148.514
					c102.779-117.766,81.792-485.526-176.442-777.523"/>
			</g>
		</g>
		<g>
			<g>
				<path style="fill:#FFFFFF;" d="M2304.906,2290.578c-77.081-23.418-160.771-19.518-233.875,13.911
					c-25.324,11.58-49.798,26.827-70.04,46.899c-73.982,73.375-76.057,220.697-25.825,280.409
					c19.807,23.545,41.109,49.687,41.109,49.687c-14.072,20.166-111.012,183.744-33.005,248.772
					c68.313,56.948,194.395,47.602,260.82-41.961c43.903-59.196,52.814-127.489,50.317-179.686
					c-2.919-61.03-13.835-119.219,16.578-164.898c34.646-52.037,169.738-71.482,236.967-148.514
					c102.779-117.766,81.792-485.526-176.442-777.523L2304.906,2290.578z"/>
			</g>
		</g>
		<g style="opacity:0.25;">
			<g>
				<path style="fill:#371A45;" d="M2547.967,2395.2c-67.23,77.012-202.339,96.477-236.976,148.534
					c-30.395,45.668-19.515,103.864-16.571,164.855c2.496,52.207-6.438,120.535-50.309,179.729
					c-66.432,89.54-192.506,98.874-260.834,41.925c-12.378-10.281-20.314-23.009-24.905-37.283
					c76.363,40.927,201.889,47.914,259.885-30.345c43.872-59.195,23.659-135.807,21.163-188.014
					c-2.945-61.041-25.205-148.515,17.392-198.211c68.161-79.521,168.924-38.166,236.154-115.228
					c95.38-109.255,84.2-433.925-124.377-713.475l2.944-29.996C2629.722,1909.667,2650.734,2277.41,2547.967,2395.2z"/>
			</g>
		</g>
		<g>
			<g>
				<path style="fill:#371A45;" d="M2303.228,2296.102c-14.299-1.63-28.286-3.335-42.271-4.258
					c-13.997-0.719-27.847-1.39-41.66-0.923c-13.792,0.378-27.505,1.241-41.069,2.969c-13.557,1.711-27.051,3.794-40.232,7.194
					c-6.641,1.481-13.113,3.558-19.668,5.315c-6.416,2.207-12.932,4.11-19.199,6.7c-12.681,4.718-25.11,10.289-36.953,16.643
					c-11.868,6.309-23.118,13.514-33.528,21.58c-5.195,4.045-10.161,8.333-14.846,12.861c-2.209,2.314-4.487,4.551-6.653,6.917
					c-2.058,2.476-4.28,4.801-6.235,7.383c-16.05,20.331-27.263,45.033-34.282,70.935c-6.89,25.983-9.478,53.354-7.922,80.214
					c1.567,26.754,7.437,53.579,19.39,75.687c3.015,5.463,6.436,10.518,10.159,15.114l13.787,16.677l27.659,33.433l8.228,9.944
					l-7.449,10.912c-2.461,3.605-5.244,8.147-7.813,12.48c-2.583,4.425-5.139,8.898-7.59,13.446
					c-4.927,9.078-9.585,18.333-13.94,27.697c-8.735,18.719-16.189,37.957-21.812,57.404c-5.481,19.414-9.158,39.238-8.662,58.074
					c0.271,18.873,5.352,36.254,16.16,48.801l1.99,2.395c0.701,0.769,1.528,1.429,2.278,2.157c1.631,1.403,2.8,2.931,4.883,4.268
					c3.84,2.682,7.439,5.681,11.414,8.192c4.141,2.273,8.174,4.725,12.356,6.936l13.125,5.646c17.991,6.56,37.437,9.639,56.877,9.5
					c19.456-0.137,38.931-3.484,57.395-9.75c18.562-6.113,35.671-16.011,50.945-27.941c30.767-23.593,52.349-59.104,65.339-96.71
					c6.235-18.992,10.576-38.74,12.476-58.866c1.084-10.042,1.501-20.178,1.528-30.314c0.051-5.071-0.151-10.142-0.32-15.212
					l-0.911-15.728c-1.333-21.083-3.323-42.694-3.391-65.188c-0.095-11.218,0.571-22.76,2.109-34.391
					c1.497-11.625,4.304-23.474,8.748-34.915c1.047-2.878,2.178-5.731,3.599-8.49c1.396-2.758,2.559-5.63,4.182-8.273l4.792-7.969
					c1.868-2.661,3.928-5.646,6.094-8.077c8.706-10.084,18.523-17.507,28.306-23.887c19.685-12.551,39.685-21.567,59.302-30.544
					c39.172-17.679,77.783-34.327,110.605-57.754c16.213-11.67,31.089-25.084,42.085-40.397
					c11.24-15.515,19.724-33.71,26.187-52.727c6.462-19.064,10.964-39.034,14.182-59.303c2.898-20.356,4.553-40.983,5.059-61.722
					c0.764-41.504-2.964-83.27-9.861-124.515c-14.333-82.488-41.692-162.836-79.084-238.035
					c-18.667-37.695-41.636-72.958-64.314-108.253c-22.832-35.315-46.65-69.738-67.612-107.933l-0.022-0.039
					c-1.572-2.861-0.525-6.454,2.336-8.025c2.075-1.139,4.541-0.896,6.335,0.414c35.583,26.068,64.294,59.432,89.365,95.042
					c25.227,35.625,45.542,74.413,64.976,113.357c38.701,78.051,67.202,161.396,82.17,247.634
					c7.217,43.146,11.162,86.992,10.347,131.086c-0.535,22.05-2.29,44.136-5.437,66.155c-3.481,21.991-8.386,43.909-15.671,65.383
					c-7.314,21.425-16.987,42.545-30.867,61.765c-14.082,19.498-31.56,34.958-49.993,48.274
					c-37.095,26.384-77.827,43.615-116.479,61.146c-19.277,8.776-38.372,17.565-54.795,28.085
					c-8.13,5.256-15.42,11.066-20.706,17.216c-1.401,1.552-2.339,3.035-3.572,4.713l-3.472,5.79
					c-1.211,1.899-2.002,4.045-3.042,6.045c-1.064,1.991-1.887,4.117-2.659,6.272c-6.709,16.979-8.518,36.602-8.547,56.835
					c0.044,20.321,1.934,41.384,3.32,62.999l0.942,16.317c0.195,5.621,0.41,11.243,0.359,16.874
					c-0.027,11.256-0.498,22.532-1.702,33.767c-2.139,22.485-6.99,44.816-14.119,66.46c-7.385,21.573-17.351,42.388-29.893,61.589
					c-3.354,4.666-6.375,9.484-10.039,14.005l-11.155,13.475c-3.823,4.397-8.237,8.265-12.349,12.401
					c-4.033,4.243-8.699,7.767-13.291,11.379c-18.345,14.355-38.923,26.123-61.055,33.468
					c-22.048,7.502-45.239,11.497-68.557,11.656c-23.301,0.149-46.787-3.518-69.048-11.644l-16.365-7.032
					c-5.281-2.75-10.432-5.824-15.627-8.765c-5.059-3.193-9.78-6.993-14.648-10.508c-2.422-1.6-4.805-4.155-7.175-6.29
					c-1.172-1.132-2.4-2.198-3.506-3.398l-3.184-3.738c-8.489-9.973-14.744-21.776-18.599-33.87
					c-3.953-12.128-5.413-24.456-5.735-36.421c-0.564-24.034,3.894-46.75,9.978-68.455c6.267-21.671,14.36-42.445,23.713-62.504
					c4.668-10.035,9.636-19.905,14.917-29.633c2.625-4.871,5.376-9.69,8.188-14.503c2.896-4.862,5.669-9.471,9.241-14.706
					l0.776,20.854l-27.429-33.152l-13.743-16.627c-5.376-6.575-10.005-13.514-13.95-20.665
					c-15.437-28.796-21.687-59.741-23.599-90.306c-1.772-30.638,1.184-61.339,8.967-91.074
					c7.671-29.708,20.364-58.689,39.583-84.032c19.495-25.728,44.836-44.873,71.741-59.669
					c13.503-7.324,27.461-13.519,41.824-18.696c14.351-5.164,29.028-9.437,43.972-12.305c59.463-12.336,122.8-6.541,176.375,19.153
					c2.91,1.395,4.136,4.884,2.742,7.792c-1.104,2.301-3.518,3.55-5.918,3.28L2303.228,2296.102z"/>
			</g>
		</g>
		<g>
			<g>
				<path style="fill:#371A45;" d="M2292.808,2604.518c-0.576,0-1.167-0.039-1.753-0.117c-7.114-0.962-12.1-7.505-11.138-14.614
					c18.701-138.33-62.231-203.13-97.9-224.57c-56.865-34.194-126.694-38.496-166.016-10.259c-5.84,4.189-13.955,2.852-18.13-2.974
					c-4.185-5.83-2.852-13.945,2.974-18.13c48.14-34.565,128.154-30.835,194.561,9.092c40.073,24.087,131.03,96.699,110.264,250.317
					C2304.786,2599.786,2299.21,2604.518,2292.808,2604.518z"/>
			</g>
		</g>
		<g>
			<g>
				<path style="fill:#371A45;" d="M2014.739,2652.681l7.249,4.906l7.888,5.083c5.378,3.237,10.742,6.528,16.318,9.373
					c11.03,5.927,22.488,10.884,34.326,14.277c5.916,1.755,11.931,3.088,18.04,3.933c6.106,0.896,12.319,1.505,18.657,1.538
					c12.803,0.552,25.862-1.503,40.403-4.174c-9.233,11.448-22.314,20.031-36.936,24.851c-14.644,4.948-30.623,5.717-45.945,3.947
					c-15.386-1.819-30.266-6.222-44.109-12.472c-6.873-3.228-13.616-6.708-19.968-10.84c-3.184-2.058-6.338-4.153-9.363-6.495
					c-3.159-2.386-5.815-4.526-9.238-7.734c-6.973-6.538-7.327-17.491-0.789-24.467c5.901-6.296,15.403-7.196,22.327-2.501
					L2014.739,2652.681z"/>
			</g>
		</g>
		<g>
			<g>
				<path style="fill:#FFFFFF;" d="M2351.764,1675.513c360.642-153.078,400.727-310.023,510.379-312.37
					s161.495,101.428,97.372,242.554c-105.487,232.164-504.921,257.414-504.921,257.414"/>
			</g>
		</g>
		<g style="opacity:0.25;">
			<g>
				<path style="fill:#371A45;" d="M2959.531,1605.71c-105.511,232.135-504.947,257.39-504.947,257.39h0
					c-9.599-17.497,0.412-39.334,19.957-43.373c119.498-24.695,330.457-88.855,418.51-243.415
					c36.036-63.237,49.861-133.561,44.969-192.656C2991.475,1420.392,3006.049,1503.194,2959.531,1605.71z"/>
			</g>
		</g>
		<g>
			<g>
				<path style="fill:#371A45;" d="M2349.509,1670.198c25.396-20.734,52.927-35.504,80.442-50.354
					c27.39-15.024,55.247-28.999,82.49-44.159c27.258-15.128,53.496-31.979,79.06-49.734c25.554-17.783,50.388-36.554,74.49-56.396
					c24.189-19.76,47.561-40.555,71.848-61.371c12.173-10.376,24.695-20.74,38.352-30.431c13.599-9.664,28.76-18.644,45.884-24.62
					c8.462-3.154,17.534-5.027,26.58-6.311c4.524-0.554,9.121-0.74,13.625-0.994c4.373,0.088,8.718-0.071,13.108,0.264
					c17.488,1.063,35.364,4.454,52.017,12.01c16.729,7.245,31.936,18.573,43.97,32.489c11.86,14.07,20.586,30.471,25.747,47.522
					c5.374,17.035,7.59,34.583,7.62,51.791c0.073,17.234-1.931,34.193-5.349,50.665c-3.423,16.481-8.267,32.489-14.072,48.02
					l-4.536,11.563l-4.915,11.368c-3.599,7.523-7.52,14.991-11.292,22.474c-16.26,29.379-37.424,55.717-61.387,78.552
					c-23.997,22.861-50.703,42.351-78.687,59.171c-56.123,33.58-117.021,56.864-178.923,74.246
					c-15.503,4.315-31.079,8.328-46.748,11.881c-15.649,3.634-31.243,7.546-46.982,10.852c-15.75,3.242-31.743,5.205-47.856,5.958
					c-16.162,0.46-32.449-0.511-49.036-5.781c-3.259-1.035-5.061-4.518-4.026-7.777c0.52-1.636,1.655-2.905,3.071-3.633l0.227-0.116
					c14.934-7.62,30.056-12.262,45.215-16.047c15.198-3.561,30.42-6.572,45.771-8.981c15.327-2.488,30.745-4.74,45.876-8.284
					c15.173-3.364,30.203-7.294,45.151-11.437c59.68-16.735,117.925-39.144,170.415-70.58c26.179-15.73,50.823-33.774,72.622-54.548
					c21.78-20.76,40.625-44.313,55-70.283c3.306-6.644,6.755-13.168,9.993-19.885l4.495-10.391l4.116-10.505
					c5.259-14.066,9.578-28.4,12.583-42.867c3.003-14.458,4.688-29.059,4.626-43.438c-0.007-14.376-1.88-28.531-6.045-41.661
					c-3.979-13.214-10.52-25.186-18.999-35.322c-8.682-9.951-19.368-18.015-31.675-23.336c-12.17-5.58-25.889-8.228-39.863-9.095
					c-3.489-0.286-7.061-0.116-10.586-0.22c-3.372,0.234-6.694,0.336-10.005,0.736c-6.567,0.986-13.088,2.233-19.438,4.645
					c-25.588,8.882-49.473,28.693-73.184,48.716c-23.711,20.315-47.578,41.553-72.349,61.79
					c-24.705,20.337-50.337,39.72-76.667,58.041c-26.338,18.334-53.503,35.391-80.793,52.207
					c-27.322,16.769-55.388,32.346-84.578,45.493c-7.339,3.196-14.6,6.543-22.007,9.572c-7.441,2.946-14.98,5.667-22.607,8.165
					c-7.6,2.561-15.332,4.79-23.245,6.553c-7.871,1.865-15.82,3.502-24.033,4.446c-3.298,0.392-6.289-1.965-6.682-5.264
					C2347.09,1673.469,2348,1671.458,2349.509,1670.198z"/>
			</g>
		</g>
		<g>
			<g>
				<g>
					<path style="fill:#FFFFFF;" d="M1532.219,1590.02c403.253,597.535,1252.877,67.257,928.716-546.649
						C2062.659,421.915,1184.94,970.875,1532.219,1590.02z"/>
				</g>
			</g>
			<g>
				<g>
					<path style="fill:#FFFFFF;" d="M1532.219,1590.02c403.253,597.535,1252.877,67.257,928.716-546.649
						C2062.659,421.915,1184.94,970.875,1532.219,1590.02z"/>
				</g>
			</g>
			<g style="opacity:0.25;">
				<g>
					<path style="fill:#371A45;" d="M2474.998,1616.391c-13.775,25.055-29.548,48.813-47.067,71.223
						c-13.276,17.12-27.601,33.391-42.823,48.763c-131.315,132.813-328.363,199.743-516.128,152.427
						c-20.763-5.24-41.476-11.878-61.939-20.014c-98.574-39.03-192.156-112.099-269.368-226.495
						c-39.031-69.626-62.588-138.303-73.07-204.584c68.579,48.912,154.075,146.188,319.38,241.867
						c-1.399-7.187-2.795-14.374-4.243-21.612l591.791-40.278c10.432,11.779,20.414,23.658,30.047,35.636
						C2427.583,1641.148,2451.989,1628.819,2474.998,1616.391z"/>
				</g>
			</g>
			<g>
				<g>
					<path style="fill:#FFFFFF;" d="M1532.219,1590.02c403.253,597.535,1252.877,67.257,928.716-546.649
						C2062.659,421.915,1184.94,970.875,1532.219,1590.02z"/>
				</g>
			</g>
			<g>
				<g>
					<path style="fill:#371A45;" d="M1986.573,1864.059c-32.612,0-65.146-3.032-97.236-9.17
						c-145.171-27.759-272.197-116.958-367.354-257.959l-0.537-0.869c-82.661-147.368-102.725-301.255-58.022-445.019
						c39.888-128.274,128.496-238.914,249.507-311.543c120.771-72.48,259.224-97.971,389.805-71.797
						c147.275,29.524,274.731,122.546,368.594,269.009l0.522,0.896c77.275,146.336,94.136,298.25,48.765,439.314
						c-40.576,126.162-128.389,234.858-247.256,306.069C2184.263,1836.368,2085.108,1864.059,1986.573,1864.059z M1542.74,1583.531
						c202.163,299.131,506.211,305.108,717.93,178.272c206.865-123.931,354.355-399.624,189.585-712.207
						c-198.589-309.397-514.785-314.856-724.614-188.921C1513.741,987.853,1366.207,1268.277,1542.74,1583.531z"/>
				</g>
			</g>
			<g style="opacity:0.25;">
				<g>
					<path style="fill:#371A45;" d="M1532.218,1590.002c339.314,522.172,1104.698,191.327,987.115-395.531
						c-24.775,193.607-90.545,205.036-186.06,308.322c-291.977,337.706-792.08,129.993-875.551-253.671
						C1443.718,1369.649,1471.369,1489.37,1532.218,1590.002z"/>
				</g>
			</g>
			<g>
				<g>
					<path style="fill:#293856;" d="M1986.573,1869.029c-32.925,0-65.762-3.057-98.169-9.253
						c-146.499-28.018-274.634-117.944-370.547-260.063l-0.747-1.216c-83.345-148.594-103.555-303.833-58.433-448.933
						c40.244-129.441,129.634-241.072,251.694-314.331c121.831-73.12,261.514-98.833,393.345-72.407
						c148.623,29.795,277.192,123.574,371.802,271.199l0.732,1.26c77.91,147.549,94.893,300.791,49.102,443.159
						c-40.947,127.31-129.531,236.983-249.434,308.814C2186.046,1841.1,2086.002,1869.029,1986.573,1869.029z M1546.978,1580.924
						c200.342,296.265,501.46,302.227,711.133,176.611c204.883-122.739,350.962-395.776,187.842-705.43
						c-196.797-306.438-509.956-311.89-717.754-187.166C1518.336,990.897,1372.218,1268.629,1546.978,1580.924z"/>
				</g>
			</g>
			<g>
				<g>
					<path style="fill:#371A45;" d="M1986.573,1869.029c-32.925,0-65.762-3.057-98.169-9.253
						c-146.499-28.018-274.634-117.944-370.547-260.063l-0.747-1.216c-83.345-148.594-103.555-303.833-58.433-448.933
						c40.244-129.441,129.634-241.072,251.694-314.331c121.831-73.12,261.514-98.833,393.345-72.407
						c148.623,29.795,277.192,123.574,371.802,271.199l0.732,1.26c77.91,147.549,94.893,300.791,49.102,443.159
						c-40.947,127.31-129.531,236.983-249.434,308.814C2186.046,1841.1,2086.002,1869.029,1986.573,1869.029z M1546.978,1580.924
						c200.342,296.265,501.46,302.227,711.133,176.611c204.883-122.739,350.962-395.776,187.842-705.43
						c-196.797-306.438-509.956-311.89-717.754-187.166C1518.336,990.897,1372.218,1268.629,1546.978,1580.924z"/>
				</g>
			</g>
			<g>
				<g>
					<path style="fill:#371A45;" d="M1618.217,1698.053c545.097,321.63,1007.846-314.439,594.392-683.389
						C1724.394,629.546,1176.364,1229.779,1618.217,1698.053z"/>
				</g>
			</g>
			<g>
				<g>
					<path style="fill:#21102B;" d="M1472.506,1323.23c-2.382,572.035,815.7,619.687,903.713,97.063
						C2114.106,1728.2,1625.827,1600.033,1472.506,1323.23z"/>
				</g>
			</g>
			<g>
				<g>
					<path style="fill:#371A45;" d="M1941.329,1852.76c-38.418,0-76.592-4.805-113.672-14.521
						c-121.616-31.865-228.149-114.907-308.086-240.146l-0.059-0.098c-130.732-208.31-108.213-547.891,133.672-721.394l2.188-1.301
						c131.196-63.752,290.273-68.076,436.46-11.855c145.674,56.021,260.322,165.081,314.551,299.211
						c49.17,131.223,47.158,264.089-5.679,384.592c-47.891,109.229-134.019,199.233-242.52,253.433
						C2089.141,1835.167,2014.81,1852.76,1941.329,1852.76z M1544.898,1582.008c175.591,275.068,432.886,275.249,599.878,191.831
						c191.953-95.884,333.853-332.871,233.652-600.298c-50.981-126.096-159.419-229.048-297.368-282.097
						c-138.018-53.069-287.896-49.316-411.426,10.281C1442.447,1065.611,1421.622,1385.533,1544.898,1582.008z"/>
				</g>
			</g>
			<g>
				<g>
					<path style="fill:#371A45;" d="M1916.617,1803.39c-101.211,0-205.771-30.571-307.202-90.42l-2.114-1.245l-1.68-1.782
						c-106.675-113.052-164.419-242.149-166.987-373.335c-2.305-117.51,40.068-229.91,119.307-316.489
						c77.446-84.619,182.422-135.945,295.596-144.526c125.791-9.517,253.657,33.852,369.8,125.471l0.806,0.676
						c97.065,86.616,153.501,193.437,163.208,308.911c8.789,104.565-21.821,210.684-86.187,298.813
						c-69.688,95.41-171.855,160.864-287.69,184.302C1981.69,1800.196,1949.322,1803.39,1916.617,1803.39z M1629.136,1684.376
						c277.891,162.783,523.579,69.6,644.048-95.347c109.336-149.697,129.502-381.196-71.719-561.089
						c-242.339-190.896-484.956-129.761-617.969,15.566C1446.822,1192.843,1408.155,1448.697,1629.136,1684.376z"/>
				</g>
			</g>
			<g>
				<g>
					<path style="fill:#FFFFFF;" d="M2604.102,1421.521c-34.431,251.841-289.733,238.53-281.098-5.21
						C2349.403,1151.034,2622.31,1165.231,2604.102,1421.521z"/>
				</g>
			</g>
			<g style="opacity:0.35;">
				<g>
					<path style="fill:#371A45;" d="M2444.694,1605.477c-76.557-3.428-133.1-96.255-120.561-201.927
						c49.18,110.123,163.636-73.524,171.289-125.902C2692.396,1325.304,2585.174,1614.79,2444.694,1605.477z"/>
				</g>
			</g>
			<g>
				<g>
					<path style="fill:#371A45;" d="M2450.948,1622.135c-3.55,0-7.065-0.151-10.557-0.449
						c-70.464-6.05-139.443-72.09-134.702-205.991l0.078-1.099c14.492-145.615,102.295-215.01,181.475-208.198
						c71.577,6.104,144.082,76.411,134.141,216.348l-0.117,1.123C2602.398,1561.842,2521.832,1622.135,2450.948,1622.135z
						 M2340.299,1417.477c-3.745,110.781,49.019,165.049,103.057,169.688c57.29,4.966,126.631-45.386,143.506-167.432
						c8.066-116.162-47.466-174.116-102.563-178.814C2422.164,1235.553,2352.716,1294.552,2340.299,1417.477z M2604.102,1421.52
						h0.049H2604.102z"/>
				</g>
			</g>
			<g>
				<g>
					<path style="fill:#FFFFFF;" d="M2614.127,1435.438c-28.117,204.056-219.545,197.315-212.592,0.173
						C2422.156,1218.129,2630.184,1225.687,2614.127,1435.438z"/>
				</g>
			</g>
			<g>
				<g>
					<path style="fill:#371A45;" d="M2495.753,1600.978c-2.568,0-5.117-0.112-7.646-0.327
						c-53.296-4.6-105.371-57.578-101.563-165.566l0.059-0.889c11.465-120.923,79.785-178.853,141.499-173.56
						c54.766,4.693,109.727,61.753,100.981,175.947l-0.098,0.898C2613.321,1551.188,2550.469,1600.978,2495.753,1600.978z
						 M2416.51,1436.583c-2.974,88.008,35.083,130.801,74.175,134.175c42.593,3.755,94.697-37.607,108.521-136.919
						c7.021-93.525-33.232-139.849-73.667-143.311C2478.922,1286.451,2426.246,1335.387,2416.51,1436.583z M2614.127,1435.436h0.049
						H2614.127z"/>
				</g>
			</g>
			<g style="opacity:0.7;">
				<g>
					<path style="fill:#FFFFFF;" d="M2272.781,1307.243c-27.873,103.314-145.788,73.455-136.747-19.916
						C2154.087,1170.212,2293.63,1203.159,2272.781,1307.243z"/>
				</g>
			</g>
			<g style="opacity:0.7;">
				<g>
					<path style="fill:#FFFFFF;" d="M2212.123,1469.653c-12.943,38.896-64.763,26.833-54.618-16.731
						C2170.447,1414.03,2222.267,1426.092,2212.123,1469.653z"/>
				</g>
			</g>
			<g style="opacity:0.7;">
				<g>
					<path style="fill:#FFFFFF;" d="M1529.054,1363.175c-75.896-401.774,340.96-462.117,469.273-378.991
						C1730.853,1007.715,1615.441,1175.365,1529.054,1363.175z"/>
				</g>
			</g>
			<g style="opacity:0.25;">
				<g>
					<path style="fill:#371A45;" d="M2392.134,1481.943c-4.213-28.668-0.579-58.594,9.028-86.073
						c38.867,136.978,176.214,73.663,206.489-25.69C2642.004,1573.2,2436.827,1672.184,2392.134,1481.943z"/>
				</g>
			</g>
			<g>
				<g>
					<path style="fill:#371A45;" d="M2334.166,1267.184c-5.127,0-9.468-1.255-12.93-2.876
						c-22.876-10.713-25.352-46.069-25.566-56.646c-0.195-9.565,7.402-17.476,16.968-17.671c0.122-0.005,0.239-0.005,0.356-0.005
						c9.395,0,17.104,7.51,17.314,16.938c0.229,9.365,2.671,20.63,5.239,25.024c1.143-0.547,2.925-1.587,5.396-3.564
						c7.466-5.991,18.374-4.771,24.346,2.705c5.977,7.471,4.766,18.369-2.705,24.346
						C2351.505,1264.303,2341.929,1267.184,2334.166,1267.184z M2333.985,1232.535L2333.985,1232.535L2333.985,1232.535z"/>
				</g>
			</g>
		</g>
		<g>
			<g>
				<g>
					
						<ellipse transform="matrix(0.7071 -0.7071 0.7071 0.7071 -940.1962 1898.2776)" style="fill:#FFFFFF;" cx="1821.326" cy="2084.056" rx="58.664" ry="58.664"/>
				</g>
			</g>
			<g style="opacity:0.35;">
				<g>
					<path style="fill:#371A45;" d="M1762.838,2088.453c2.433,32.307,30.579,56.554,62.887,54.121
						c32.307-2.433,56.551-30.626,54.117-62.933c-0.672-8.926-3.312-17.281-7.508-24.586c-7.902,20.464-27.044,35.696-50.38,37.454
						c-23.336,1.758-44.543-10.436-55.375-29.489C1763.524,2070.87,1762.166,2079.527,1762.838,2088.453z"/>
				</g>
			</g>
			<g>
				<g>
					<path style="fill:#371A45;" d="M1821.275,2157.721c-38.13,0.005-70.498-29.502-73.403-68.13
						c-1.479-19.624,4.771-38.647,17.598-53.564c12.832-14.922,30.703-23.95,50.322-25.425c19.614-1.479,38.647,4.771,53.564,17.603
						c14.922,12.827,23.95,30.698,25.425,50.317c3.052,40.508-27.422,75.943-67.92,78.989
						C1824.986,2157.652,1823.126,2157.721,1821.275,2157.721z M1821.353,2040.392c-1.094,0-2.197,0.039-3.306,0.122
						c-11.631,0.879-22.227,6.23-29.829,15.073c-7.607,8.843-11.309,20.117-10.435,31.748l0,0
						c1.807,24.004,22.842,42.061,46.821,40.264c24.009-1.807,42.07-22.813,40.264-46.821
						C1863.145,2057.877,1843.956,2040.392,1821.353,2040.392z"/>
				</g>
			</g>
			<g>
				<g>
					<path style="fill:#FFFFFF;" d="M1893.236,2224.583l310.093-4.89c36.702-0.567,66.287-31.078,65.717-67.827l-2.611-165.016
						c-0.506-32.172-23.972-58.828-54.465-64.572c-4.317-0.844-8.786-1.208-13.363-1.144l-310.047,4.886
						c-36.749,0.57-66.334,31.082-65.716,67.827l2.036,130.698l0.528,34.321C1825.98,2195.615,1856.534,2225.15,1893.236,2224.583z"
						/>
				</g>
			</g>
			<g style="opacity:0.25;">
				<g>
					<path style="fill:#371A45;" d="M1893.236,2224.583l310.093-4.89c36.702-0.567,66.287-31.078,65.717-67.827l-2.611-165.016
						c-0.506-32.172-23.972-58.828-54.465-64.572c-17.424,11.971-28.488,19.63-28.488,19.63
						c-13.01,132.696-5.64,230.801-211.375,220.415c-70.928-3.58-118.722-23.656-147.227-37.778l0.528,34.321
						C1825.98,2195.615,1856.534,2225.15,1893.236,2224.583z"/>
				</g>
			</g>
			<g>
				<g>
					<path style="fill:#371A45;" d="M1892.178,2239.601c-44.507,0-81.055-35.845-81.758-80.493l-2.598-165.044
						c-0.713-45.083,35.391-82.344,80.479-83.057l310.078-4.883c44.844-0.708,82.344,35.4,83.057,80.483l2.598,165.044
						c0.342,21.767-7.861,42.417-23.101,58.139c-15.234,15.723-35.615,24.575-57.388,24.917l-310.068,4.883
						C1893.043,2239.596,1892.608,2239.601,1892.178,2239.601z M2199.674,1936.114c-0.273,0-0.547,0.005-0.825,0.01l-310.073,4.883
						c-13.755,0.215-26.65,5.825-36.309,15.796c-9.663,9.971-14.863,23.037-14.644,36.787l2.598,165.049
						c0.215,13.755,5.825,26.645,15.796,36.309c9.971,9.658,23.032,14.819,36.792,14.643l310.068-4.883
						c13.755-0.215,26.65-5.825,36.313-15.796c9.658-9.966,14.863-23.037,14.644-36.792l-2.598-165.039
						C2250.992,1958.81,2227.847,1936.114,2199.674,1936.114z"/>
				</g>
			</g>
			<g>
				<g>
					<path style="fill:#FFFFFF;" d="M1880.771,2223.558c4.032,0.771,8.172,1.114,12.466,1.024l310.093-4.89
						c26.895-0.436,49.964-16.899,60.131-40.198c3.71-8.46,5.717-17.822,5.539-27.625l-1.127-73.311l-0.373-24.188l-1.065-67.52
						c-0.571-36.748-31.125-66.283-67.827-65.716l-67.004,1.073c30.976,5.334,54.924,32.188,55.455,64.685l1.431,89.136
						l1.184,75.925c0.567,36.702-29.014,67.26-65.717,67.827L1880.771,2223.558z"/>
				</g>
			</g>
			<g style="opacity:0.25;">
				<g>
					<path style="fill:#371A45;" d="M1880.771,2223.558c4.032,0.771,8.172,1.114,12.466,1.024l310.093-4.89
						c36.702-0.567,66.287-31.078,65.67-67.823l-1.5-97.5c-7.529,17.35-21.206,38.716-43.593,41.291
						c-12.28,1.439-24.526-7.222-35.418-19.632l1.184,75.925c0.567,36.702-29.014,67.26-65.717,67.827L1880.771,2223.558z"/>
				</g>
			</g>
			<g>
				<g>
					<path style="fill:#371A45;" d="M1891.876,2239.596c-4.585,0-9.253-0.425-13.833-1.269l2.48-29.751l243.208-3.809
						c13.74-0.205,26.626-5.811,36.284-15.781c9.668-9.975,14.863-23.042,14.639-36.797l-2.598-165.044
						c-0.391-24.834-18.472-45.938-42.993-50.181l2.319-29.78l66.978-1.069c21.768-0.249,42.432,7.881,58.154,23.11
						c15.728,15.244,24.575,35.625,24.907,57.393l2.598,165.015c0.356,21.772-7.842,42.427-23.086,58.159
						s-35.62,24.58-57.373,24.912l-310.088,4.878C1892.945,2239.591,1892.408,2239.596,1891.876,2239.596z M2183.668,1936.354
						c11.299,13.852,18.086,31.401,18.389,50.322l2.598,165.034c0.317,19.575-6.284,38.257-18.716,53.267l17.158-0.273
						c13.745-0.205,26.631-5.815,36.289-15.786c9.663-9.976,14.863-23.037,14.634-36.787v-0.015l-2.598-165.034
						c-0.205-13.755-5.811-26.65-15.786-36.309c-9.775-9.477-22.539-14.668-36.011-14.668c-0.269,0-0.532,0.005-0.796,0.01
						L2183.668,1936.354z"/>
				</g>
			</g>
			<g>
				<g>
					<path style="fill:#22A7F0;" d="M2066.116,2072.69c0.131,6.102,9.769,55.174,9.769,55.174s15.604-0.335,34.764-0.747
						c23.938-0.514,42.81-25.717,42.153-56.29c-0.657-30.574-20.595-54.942-44.533-54.427c-16.155,0.347-34.764,0.747-34.764,0.747
						S2065.903,2062.75,2066.116,2072.69z"/>
				</g>
			</g>
			<g style="opacity:0.35;">
				<g>
					<path style="fill:#371A45;" d="M2066.116,2072.69c0.131,6.102,9.769,55.174,9.769,55.174s15.604-0.335,34.764-0.747
						c23.938-0.514,42.81-25.717,42.153-56.29c-0.657-30.574-20.595-54.942-44.533-54.427c-16.155,0.347-34.764,0.747-34.764,0.747
						S2065.903,2062.75,2066.116,2072.69z"/>
				</g>
			</g>
			<g>
				<g>
					<path style="fill:#371A45;" d="M2067.691,2138.038l-1.621-8.247c-2.3-11.714-9.814-50.43-9.951-56.889
						c-0.22-10.366,6.23-49.634,7.524-57.402l1.362-8.174l43.042-0.928c0.317-0.005,0.635-0.01,0.947-0.01
						c28.994,0,53.037,28.574,53.809,64.224c0.767,36.04-22.529,65.874-51.938,66.504L2067.691,2138.038z M2076.114,2072.452
						c0.171,3.462,3.955,24.395,7.979,45.229l26.343-0.566c18.384-0.391,32.905-21.059,32.368-46.074
						c-0.537-25.015-15.918-45.073-34.321-44.644l-26.445,0.567C2079.288,2044.186,2076.007,2066.798,2076.114,2072.452z"/>
				</g>
			</g>
			<g>
				<g>
					
						<ellipse transform="matrix(0.9998 -0.0215 0.0215 0.9998 -44.0554 45.0601)" style="fill:#22A7F0;" cx="2074.695" cy="2072.506" rx="43.353" ry="55.372"/>
				</g>
			</g>
			<g style="opacity:0.35;">
				<g>
					<path style="fill:#371A45;" d="M2118.036,2071.585c0.668,30.555-18.207,55.774-42.139,56.291
						c-23.966,0.52-43.902-23.86-44.539-54.453c-0.102-4.126,0.183-8.177,0.793-12.08c6.609,20.867,22.787,35.49,41.376,35.063
						c20.672-0.445,37.594-19.298,41.349-44.177C2116.788,2058.234,2117.869,2064.753,2118.036,2071.585z"/>
				</g>
			</g>
			<g>
				<g>
					<path style="fill:#FFFFFF;" d="M2118.036,2071.585c0.052,2.08-0.001,4.134-0.161,6.161
						c-5.271-23.852-22.662-41.197-42.882-40.751c-22.3,0.499-40.243,22.416-41.974,50.165c-0.992-4.407-1.545-8.986-1.66-13.736
						c-0.668-30.556,18.207-55.774,42.139-56.292C2097.432,2016.649,2117.365,2040.994,2118.036,2071.585z"/>
				</g>
			</g>
			<g>
				<g>
					<path style="fill:#371A45;" d="M2075.113,2137.872c-14.346,0-27.793-6.802-37.964-19.229
						c-9.819-12.002-15.43-27.983-15.796-44.99c-0.776-36.035,22.524-65.869,51.938-66.509c14.697-0.278,28.55,6.519,38.95,19.224
						c9.819,12.007,15.43,27.983,15.796,44.99c0.366,17.012-4.551,33.218-13.848,45.625c-9.844,13.149-23.374,20.562-38.091,20.879
						C2075.772,2137.867,2075.44,2137.872,2075.113,2137.872z M2074.239,2027.135c-0.171,0-0.347,0.005-0.518,0.01
						c-18.389,0.395-32.91,21.069-32.368,46.079l0,0c0.269,12.563,4.272,24.195,11.274,32.754
						c6.421,7.847,14.551,12.173,23.042,11.885c8.438-0.181,16.436-4.746,22.51-12.866c6.631-8.848,10.132-20.645,9.858-33.208
						c-0.269-12.563-4.272-24.194-11.274-32.754C2090.474,2031.349,2082.491,2027.135,2074.239,2027.135z"/>
				</g>
			</g>
			<g>
				<g>
					<path style="fill:#371A45;" d="M1989.61,2231.871c-5.342,0-9.775-4.224-9.985-9.604l-4.297-109.043l-49.043-29.761
						c-2.925-1.777-4.741-4.932-4.81-8.359l-2.871-149.429c-0.103-5.523,4.287-10.083,9.81-10.19c0.063,0,0.127,0,0.195,0
						c5.435,0,9.888,4.35,9.995,9.809l2.764,143.926l48.931,29.692c2.866,1.743,4.668,4.805,4.8,8.154l4.507,114.409
						c0.22,5.522-4.077,10.171-9.595,10.386C1989.874,2231.866,1989.742,2231.871,1989.61,2231.871z"/>
				</g>
			</g>
			<g>
				<g>
					<path style="fill:#FFFFFF;" d="M2581.551,1946.567c0,0,32.772,20.032,33.441,56.769c0.774,42.474-29.16,63.233-29.16,63.233
						s-101.622,73.952-337.343,59.45c0,0-59.589-62.591,9.303-109.896C2257.792,2016.125,2473.214,2051.454,2581.551,1946.567z"/>
				</g>
			</g>
			<g style="opacity:0.25;">
				<g>
					<path style="fill:#371A45;" d="M2614.967,2002.509c0.008,0.002,0.001,0,0.009,0.002c1.175,43.023-29.159,64.065-29.159,64.065
						s-101.604,73.937-337.33,59.452c0,0-45.535-47.847-10.989-91.477c0.041,0.26,0.083,0.52,0.126,0.779
						c4.443,26.503,27.526,46.007,54.387,46.822c213.448,6.477,306.061-60.897,306.061-60.897S2607.019,2015.058,2614.967,2002.509z
						"/>
				</g>
			</g>
			<g>
				<g>
					<path style="fill:#371A45;" d="M2308.824,2142.921c-19.351,0-39.756-0.605-61.26-1.929l-5.879-0.361l-4.063-4.268
						c-1.299-1.367-31.802-33.911-27.676-73.369c2.407-23.027,15.649-42.954,39.355-59.233l4.966-3.408l5.947,0.967
						c2.07,0.337,209.321,32.807,310.898-65.527l8.345-8.081l9.912,6.06c1.626,0.991,39.81,24.834,40.615,69.292
						c0.913,49.927-34.116,74.8-35.61,75.835C2590.694,2081.578,2503.946,2142.921,2308.824,2142.921z M2255.826,2111.422
						c221.831,12.212,320.244-56.319,321.221-57.012c1.089-0.781,23.56-17.354,22.949-50.801
						c-0.317-17.217-10.264-30.044-17.827-37.339c-104.932,89.717-284.033,70.601-320.508,65.591
						c-13.169,10.21-20.518,21.665-21.86,34.111C2237.725,2085.157,2249.635,2103.39,2255.826,2111.422z"/>
				</g>
			</g>
		</g>
		<g>
			<g>
				<path style="fill:#371A45;" d="M2817.242,1768.883c-0.488,0-0.986-0.029-1.484-0.083
					c-85.122-9.683-151.934-93.223-193.203-241.592c-0.742-2.676-1.274-4.644-1.631-5.776c-2.061-4.429-1.519-9.844,1.831-13.828
					c4.614-5.508,12.817-6.211,18.301-1.602c3.354,2.813,3.965,5.01,6.533,14.243c37.651,135.366,98.418,214.468,171.108,222.734
					c7.129,0.81,12.251,7.251,11.44,14.38C2829.381,1763.99,2823.76,1768.883,2817.242,1768.883z M2624.337,1525.895
					c0.005,0,0.015,0.005,0.02,0.01C2624.351,1525.9,2624.342,1525.895,2624.337,1525.895z M2624.322,1525.88
					c0.005,0,0.005,0.005,0.005,0.005S2624.327,1525.88,2624.322,1525.88z"/>
			</g>
		</g>
		<g>
			<g>
				<path style="fill:#371A45;" d="M1566.277,2385.85c4.419,4.536,7.803,8.501,11.433,12.838c3.54,4.266,6.924,8.616,10.225,13.013
					c6.582,8.805,12.644,17.955,18.259,27.358c5.657,9.37,10.723,19.108,15.203,29.093c4.636,9.905,8.191,20.332,11.448,30.736
					c1.431,4.567-1.111,9.429-5.679,10.859c-4.175,1.307-8.594-0.706-10.415-4.548l-0.188-0.399
					c-4.321-9.094-8.799-18.053-14.29-26.493c-5.327-8.502-11.143-16.697-17.466-24.492c-6.277-7.82-12.915-15.347-19.944-22.45
					c-3.523-3.542-7.092-7.017-10.747-10.354c-3.572-3.256-7.561-6.731-10.859-9.269c-7.607-5.842-9.038-16.746-3.196-24.353
					s16.746-9.038,24.353-3.196C1565.054,2384.684,1565.728,2385.293,1566.277,2385.85z"/>
			</g>
		</g>
	</g>
</g>
</svg>
